PathFileType	4	(X/Y/Z)	Walk1.trc
DataRate	CameraRate	NumFrames	NumMarkers	Units	OrigDataRate	OrigDataStartFrame	OrigNumFrames
200.000000	200.000000	4	69	mm	200.000000	369	577
Frame#	Times		LFHD		RFHD		RBHD		C7		CLAV		STRN		RBack		LASI		RASI		RACR1		RUA1		RFA1		RWRU		LACR1		LUA1		LElbow		LWRU		RTH3		RTH2		RTH4		RLFC		RMT5		LTH3		LTH2		LTH4		LLFC		LTB1		LTB3		LTB2		LTB4		LLMAL		LMMAL		LMT1		LMT5		LToe		LowerBodyModelVer		PELOrigin		LFA1		LTH1		LBHD		RElbow		RPSI		LCAR		LPSI		RCAL		LHJC		MidPelvis		OPelvis		RHJC		SACR		XPelvis		YPelvis		ZPelvis		RTH1		RMT1		RElbowM		RToe		RLMAL		RCAR		LWRR		RTB2		RTB1		RWRR		RTB3		RTB4		RMMAL		T10		LCAL		LElbowM
			X1	Y1	Z1	X2	Y2	Z2	X3	Y3	Z3	X4	Y4	Z4	X5	Y5	Z5	X6	Y6	Z6	X7	Y7	Z7	X8	Y8	Z8	X9	Y9	Z9	X10	Y10	Z10	X11	Y11	Z11	X12	Y12	Z12	X13	Y13	Z13	X14	Y14	Z14	X15	Y15	Z15	X16	Y16	Z16	X17	Y17	Z17	X18	Y18	Z18	X19	Y19	Z19	X20	Y20	Z20	X21	Y21	Z21	X22	Y22	Z22	X23	Y23	Z23	X24	Y24	Z24	X25	Y25	Z25	X26	Y26	Z26	X27	Y27	Z27	X28	Y28	Z28	X29	Y29	Z29	X30	Y30	Z30	X31	Y31	Z31	X32	Y32	Z32	X33	Y33	Z33	X34	Y34	Z34	X35	Y35	Z35	X36	Y36	Z36	X37	Y37	Z37	X38	Y38	Z38	X39	Y39	Z39	X40	Y40	Z40	X41	Y41	Z41	X42	Y42	Z42	X43	Y43	Z43	X44	Y44	Z44	X45	Y45	Z45	X46	Y46	Z46	X47	Y47	Z47	X48	Y48	Z48	X49	Y49	Z49	X50	Y50	Z50	X51	Y51	Z51	X52	Y52	Z52	X53	Y53	Z53	X54	Y54	Z54	X55	Y55	Z55	X56	Y56	Z56	X57	Y57	Z57	X58	Y58	Z58	X59	Y59	Z59	X60	Y60	Z60	X61	Y61	Z61	X62	Y62	Z62	X63	Y63	Z63	X64	Y64	Z64	X65	Y65	Z65	X66	Y66	Z66	X67	Y67	Z67	X68	Y68	Z68	X69	Y69	Z69

369	1.845	158.32	1532.5	-21.533	156.98	1530.5	76.206	-11.633	1556.2	82.546	-78.436	1390.2	23.567	81.155	1311.5	20.564	145.6	1196.6	27.474	-139.28	1285.4	115.11	92.483	942.68	-168.2	101.15	935.18	195.02	-3.1221	1347.6	197.21	-50.358	1205.5	281.45	-46.448	908.37	321.19	-75.156	804.27	347.61	19.798	1335	-161.01	32.766	1190.4	-239.53	9.2806	1047.2	-287.68	169.02	860.65	-317.55	113.05	539.25	199.88	149.09	637.64	198.61	94.278	621.39	217.06	138.22	452.94	186.81	326.65	35.618	182.29	-46.017	548.54	-154.26	36.569	613.11	-152.6	-14.175	624.83	-182.76	-97.102	486.37	-141.19	-125.71	326.26	-43.279	-204.02	174.24	-57.027	-167.51	258.26	-112.94	-168.77	252.19	-50.781	-280.54	100.19	-117.34	-268.73	102.19	-32.772	-163.34	36.282	-34.647	-183.43	24.582	-122.08	-120.72	28.881	-35.585	9	2014	4	96.817	938.93	13.41	118.52	968.09	-289.15	21.208	697.47	-209.98	6.9632	1543.6	-51.678	-98.282	1043.2	313.1	-150.56	946.32	63.432	225.88	846.79	-302.18	-144.5	954.71	-68.576	152.66	24.317	133.51	4.8085	829.16	-110.28	-25.357	944.72	5.4187	96.817	938.93	13.41	10.703	824.06	136.71	-147.53	950.52	-2.5722	176.71	935.28	11.428	100.5	1018.8	14.972	98.726	937.28	93.37	84.493	702.95	239.99	338.67	45.821	95.016	-134.54	1033.7	229.13	378.57	52.343	101.79	201.78	64.7	177.52	-40.325	746.66	329.19	191.24	878.14	-248.6	202.6	277.41	173.72	215.85	359.03	106.81	-37.591	803.16	282.91	218.46	173.91	97.531	217.15	266.47	102.17	219.86	74.227	92.534	-128.12	1057.7	8.9748	-345.02	77.628	-76.094	-20.629	1001.5	-194.44
370	1.85	162.38	1532.9	-20.099	161.2	1531	77.644	-7.4061	1556.6	84.238	-74.122	1390.5	25.437	85.521	1312	22.023	150.19	1197.2	28.935	-134.73	1285.4	116.85	97.062	943.24	-167.45	106.24	935.4	195.97	1.4603	1347.6	198.87	-45.408	1205.1	282.86	-41.103	907.96	322.11	-69.714	803.81	348.4	23.962	1335.6	-159.56	35.869	1190.9	-238.27	12.201	1047.7	-286.22	171.99	861.02	-315.96	117.78	540.01	200.38	154.13	638.29	199.02	99.189	622.35	217.32	143.13	453.64	187.31	327.34	34.049	182.83	-40.728	548.58	-154.14	41.678	613.39	-152.34	-9.0731	625.01	-182.53	-91.788	486.42	-141.22	-121.81	326.34	-43.407	-201.77	175.2	-57.308	-164.26	258.82	-113.19	-165.57	252.72	-51.032	-279.12	102.01	-117.69	-267.17	103.96	-33.148	-163.09	36.309	-34.759	-183.39	24.579	-122.01	-120.73	28.869	-35.648	9	2014	4	101.65	939.32	14.259	121.55	968.58	-287.67	26.109	697.77	-209.71	10.972	1544	-50.005	-93.02	1042.8	314.18	-145.53	946.66	64.139	228.87	847.28	-300.63	-139.65	954.88	-67.82	152.95	24.862	133.69	9.4915	829.54	-109.48	-20.469	945.05	6.209	101.65	939.32	14.259	15.732	824.21	137.64	-142.59	950.77	-1.8407	181.54	935.73	12.164	105.29	1019.2	15.892	103.67	937.6	94.215	89.984	703.84	240.05	339.38	44.019	95.124	-129.35	1033.3	230.24	379.48	49.755	101.85	202.66	64.675	177.81	-34.806	746.27	329.96	194.28	878.7	-247.08	206.05	277.32	173.9	219.68	358.74	106.89	-32.15	802.77	283.69	220.36	173.66	97.685	220.02	266.2	102.29	220.72	73.997	92.729	-123.38	1058	9.7458	-343.79	80.516	-76.279	-17.403	1002.1	-192.76
371	1.855	166.46	1533.4	-18.65	165.44	1531.6	79.095	-3.1498	1557.1	85.952	-69.783	1390.9	27.303	89.902	1312.7	23.486	154.79	1197.9	30.451	-130.17	1285.4	118.58	101.66	943.91	-166.67	111.35	935.75	196.9	6.0511	1347.6	200.53	-40.444	1204.8	284.26	-35.736	907.64	323.02	-64.235	803.44	349.19	28.153	1336.3	-158.09	38.969	1191.5	-237	15.067	1048.3	-284.74	174.81	861.42	-314.4	122.48	540.81	200.93	159.1	639	199.47	104.04	623.39	217.69	147.95	454.33	187.82	327.97	32.7	183.36	-35.289	548.67	-154.07	46.905	613.76	-152.09	-3.8542	625.25	-182.33	-86.312	486.5	-141.31	-117.74	326.44	-43.601	-199.37	176.22	-57.634	-160.87	259.43	-113.49	-162.2	253.29	-51.337	-277.58	103.92	-118.06	-265.46	105.81	-33.537	-162.82	36.335	-34.866	-183.34	24.581	-121.94	-120.76	28.855	-35.711	9	2014	4	106.5	939.83	15.118	124.49	969.11	-286.19	31.098	698.16	-209.43	15.004	1544.5	-48.313	-87.752	1042.4	315.26	-140.5	947.1	64.788	231.71	847.73	-299.11	-134.76	955.14	-67.125	153.22	25.35	133.86	14.218	830.04	-108.65	-15.564	945.48	6.9749	106.5	939.83	15.118	20.808	824.49	138.58	-137.63	951.12	-1.1686	186.39	936.3	12.91	110.08	1019.7	16.816	108.63	938.04	95.07	95.376	704.78	240.15	339.98	42.409	95.216	-124.14	1033	231.34	380.28	47.402	101.91	203.45	64.676	178.08	-29.251	745.97	330.73	197.19	879.27	-245.59	209.35	277.23	174.09	223.43	358.46	107.04	-26.678	802.49	284.47	222.16	173.44	97.853	222.79	265.95	102.45	221.47	73.808	92.907	-118.61	1058.3	10.517	-342.41	83.563	-76.451	-14.209	1002.9	-191.04
372	1.86	170.57	1534	-17.19	169.71	1532.2	80.559	1.1355	1557.7	87.684	-65.424	1391.3	29.16	94.296	1313.4	24.953	159.39	1198.6	32.019	-125.58	1285.5	120.27	106.27	944.69	-165.84	116.48	936.25	197.81	10.646	1347.7	202.19	-35.465	1204.6	285.67	-30.345	907.42	323.93	-58.719	803.18	349.98	32.366	1337.1	-156.6	42.075	1192.2	-235.71	17.884	1048.9	-283.23	177.49	861.84	-312.86	127.13	541.65	201.54	163.98	639.77	199.94	108.84	624.49	218.18	152.68	455.02	188.32	328.52	31.561	183.87	-29.701	548.8	-154.06	52.25	614.21	-151.85	1.4819	625.56	-182.15	-80.672	486.61	-141.47	-113.48	326.56	-43.871	-196.8	177.3	-58.009	-157.32	260.07	-113.86	-158.66	253.9	-51.702	-275.92	105.93	-118.44	-263.59	107.76	-33.939	-162.54	36.357	-34.967	-183.28	24.589	-121.85	-120.8	28.839	-35.773	9	2014	4	111.38	940.47	15.987	127.35	969.69	-284.71	36.173	698.65	-209.15	19.061	1545.1	-46.608	-82.48	1042.1	316.33	-135.49	947.63	65.381	234.39	848.14	-297.63	-129.83	955.47	-66.49	153.47	25.78	134.03	18.994	830.66	-107.78	-10.641	946.01	7.7161	111.38	940.47	15.987	25.938	824.92	139.51	-132.66	951.55	-0.55458	191.27	937.01	13.663	114.89	1020.4	17.744	113.62	938.61	95.934	100.67	705.77	240.29	340.5	40.986	95.277	-118.93	1032.8	232.44	380.98	45.279	101.94	204.16	64.698	178.33	-23.66	745.77	331.48	199.97	879.82	-244.12	212.49	277.12	174.31	227.07	358.18	107.25	-21.176	802.3	285.24	223.86	173.24	98.028	225.46	265.71	102.64	222.12	73.652	93.061	-113.83	1058.7	11.29	-340.87	86.775	-76.609	-11.038	1003.8	-189.28
